<svg xmlns="http://www.w3.org/2000/svg" width="840" height="340" font-family="sans-serif" font-size="11">
<text x="46" y="18">input tokens (median) — drift off</text>
<line x1="46" y1="270.0" x2="374" y2="270.0" stroke="#888"/><line x1="46" y1="30" x2="46" y2="270.0" stroke="#888"/>
<text x="40" y="273.0" text-anchor="end">9,033</text>
<text x="40" y="33.0" text-anchor="end">95,935</text>
<line x1="46.0" y1="270.0" x2="46.0" y2="274.0" stroke="#888"/><text x="46.0" y="287.0" text-anchor="middle">75</text>
<line x1="155.3" y1="270.0" x2="155.3" y2="274.0" stroke="#888"/><text x="155.3" y="287.0" text-anchor="middle">300</text>
<line x1="210.0" y1="270.0" x2="210.0" y2="274.0" stroke="#888"/><text x="210.0" y="287.0" text-anchor="middle">600</text>
<line x1="264.7" y1="270.0" x2="264.7" y2="274.0" stroke="#888"/><text x="264.7" y="287.0" text-anchor="middle">1200</text>
<line x1="374.0" y1="270.0" x2="374.0" y2="274.0" stroke="#888"/><text x="374.0" y="287.0" text-anchor="middle">4800</text>
<text x="210.0" y="302.0" text-anchor="middle">lines per file (log)</text>
<polyline points="46.0,235.2 155.3,200.2 210.0,160.2 264.7,103.7 374.0,88.5" fill="none" stroke="#c0392b" stroke-width="2"/>
<circle cx="46.0" cy="235.2" r="3" fill="#c0392b"/>
<circle cx="155.3" cy="200.2" r="3" fill="#c0392b"/>
<circle cx="210.0" cy="160.2" r="3" fill="#c0392b"/>
<circle cx="264.7" cy="103.7" r="3" fill="#c0392b"/>
<circle cx="374.0" cy="88.5" r="3" fill="#c0392b"/>
<text x="380" y="93" fill="#c0392b">native</text>
<polyline points="46.0,253.5 155.3,185.5 210.0,111.9 264.7,65.3 374.0,44.2" fill="none" stroke="#e67e22" stroke-width="2"/>
<circle cx="46.0" cy="253.5" r="3" fill="#e67e22"/>
<circle cx="155.3" cy="185.5" r="3" fill="#e67e22"/>
<circle cx="210.0" cy="111.9" r="3" fill="#e67e22"/>
<circle cx="264.7" cy="65.3" r="3" fill="#e67e22"/>
<circle cx="374.0" cy="44.2" r="3" fill="#e67e22"/>
<text x="380" y="48" fill="#e67e22">naive</text>
<polyline points="46.0,230.1 155.3,193.8 210.0,195.2 264.7,188.7 374.0,211.5" fill="none" stroke="#2471a3" stroke-width="2"/>
<circle cx="46.0" cy="230.1" r="3" fill="#2471a3"/>
<circle cx="155.3" cy="193.8" r="3" fill="#2471a3"/>
<circle cx="210.0" cy="195.2" r="3" fill="#2471a3"/>
<circle cx="264.7" cy="188.7" r="3" fill="#2471a3"/>
<circle cx="374.0" cy="211.5" r="3" fill="#2471a3"/>
<text x="380" y="216" fill="#2471a3">minas</text>
<text x="466" y="18">wall (s, median) — drift off</text>
<line x1="466" y1="270.0" x2="794" y2="270.0" stroke="#888"/><line x1="466" y1="30" x2="466" y2="270.0" stroke="#888"/>
<text x="460" y="273.0" text-anchor="end">32</text>
<text x="460" y="33.0" text-anchor="end">85</text>
<line x1="466.0" y1="270.0" x2="466.0" y2="274.0" stroke="#888"/><text x="466.0" y="287.0" text-anchor="middle">75</text>
<line x1="575.3" y1="270.0" x2="575.3" y2="274.0" stroke="#888"/><text x="575.3" y="287.0" text-anchor="middle">300</text>
<line x1="630.0" y1="270.0" x2="630.0" y2="274.0" stroke="#888"/><text x="630.0" y="287.0" text-anchor="middle">600</text>
<line x1="684.7" y1="270.0" x2="684.7" y2="274.0" stroke="#888"/><text x="684.7" y="287.0" text-anchor="middle">1200</text>
<line x1="794.0" y1="270.0" x2="794.0" y2="274.0" stroke="#888"/><text x="794.0" y="287.0" text-anchor="middle">4800</text>
<text x="630.0" y="302.0" text-anchor="middle">lines per file (log)</text>
<polyline points="466.0,199.1 575.3,187.9 630.0,229.7 684.7,217.0 794.0,199.1" fill="none" stroke="#c0392b" stroke-width="2"/>
<circle cx="466.0" cy="199.1" r="3" fill="#c0392b"/>
<circle cx="575.3" cy="187.9" r="3" fill="#c0392b"/>
<circle cx="630.0" cy="229.7" r="3" fill="#c0392b"/>
<circle cx="684.7" cy="217.0" r="3" fill="#c0392b"/>
<circle cx="794.0" cy="199.1" r="3" fill="#c0392b"/>
<text x="800" y="203" fill="#c0392b">native</text>
<polyline points="466.0,125.0 575.3,182.4 630.0,199.1 684.7,156.8 794.0,182.4" fill="none" stroke="#e67e22" stroke-width="2"/>
<circle cx="466.0" cy="125.0" r="3" fill="#e67e22"/>
<circle cx="575.3" cy="182.4" r="3" fill="#e67e22"/>
<circle cx="630.0" cy="199.1" r="3" fill="#e67e22"/>
<circle cx="684.7" cy="156.8" r="3" fill="#e67e22"/>
<circle cx="794.0" cy="182.4" r="3" fill="#e67e22"/>
<text x="800" y="186" fill="#e67e22">naive</text>
<polyline points="466.0,108.5 575.3,156.8 630.0,129.3 684.7,82.0 794.0,64.6" fill="none" stroke="#2471a3" stroke-width="2"/>
<circle cx="466.0" cy="108.5" r="3" fill="#2471a3"/>
<circle cx="575.3" cy="156.8" r="3" fill="#2471a3"/>
<circle cx="630.0" cy="129.3" r="3" fill="#2471a3"/>
<circle cx="684.7" cy="82.0" r="3" fill="#2471a3"/>
<circle cx="794.0" cy="64.6" r="3" fill="#2471a3"/>
<text x="800" y="69" fill="#2471a3">minas</text>
</svg>